<?xml version="1.0" encoding="UTF-8" standalone="no"?>
<svg
   xmlns:dc="http://purl.org/dc/elements/1.1/"
   xmlns:cc="http://creativecommons.org/ns#"
   xmlns:rdf="http://www.w3.org/1999/02/22-rdf-syntax-ns#"
   xmlns:svg="http://www.w3.org/2000/svg"
   xmlns="http://www.w3.org/2000/svg"
   xmlns:sodipodi="http://sodipodi.sourceforge.net/DTD/sodipodi-0.dtd"
   xmlns:inkscape="http://www.inkscape.org/namespaces/inkscape"
   width="1215"
   height="768"
   style="font-family: Arial, sans-serif;"
   id="svg2"
   version="1.1"
   inkscape:version="0.91 r13725"
   sodipodi:docname="dagitty-isi.svg">
  <metadata
     id="metadata202">
    <rdf:RDF>
      <cc:Work
         rdf:about="">
        <dc:format>image/svg+xml</dc:format>
        <dc:type
           rdf:resource="http://purl.org/dc/dcmitype/StillImage" />
      </cc:Work>
    </rdf:RDF>
  </metadata>
  <defs
     id="defs200" />
  <sodipodi:namedview
     pagecolor="#ffffff"
     bordercolor="#666666"
     borderopacity="1"
     objecttolerance="10"
     gridtolerance="10"
     guidetolerance="10"
     inkscape:pageopacity="0"
     inkscape:pageshadow="2"
     inkscape:window-width="1914"
     inkscape:window-height="1040"
     id="namedview198"
     showgrid="false"
     inkscape:zoom="1.1687243"
     inkscape:cx="499.63501"
     inkscape:cy="282.6167"
     inkscape:window-x="0"
     inkscape:window-y="37"
     inkscape:window-maximized="0"
     inkscape:current-layer="svg2" />
  <g
     id="g4330"
     inkscape:export-filename="/home/luke/Documents/research-projects/nefaDiabetes/img/dagitty-isi.png"
     inkscape:export-xdpi="300"
     inkscape:export-ydpi="300">
    <g
       id="g4"
       style="cursor: move;"
       class="path">
      <path
         id="path6"
         d="M634.26,435.90L457.66,601.99"
         fill="none"
         stroke-width="1.5"
         stroke="red" />
      <path
         id="path8"
         transform="translate(457.6587706114987,601.994041807531) rotate(-43.24424314199214)"
         d="M-1,0L15,5L15,-5Z"
         class="arrowfront"
         fill="white"
         stroke-width="1.5"
         stroke="red" />
    </g>
    <g
       id="g10"
       style="cursor: move;"
       class="path">
      <path
         id="path12"
         d="M628.38,422.06L590.56,414.68"
         fill="none"
         stroke-width="1.5"
         stroke="red" />
      <path
         id="path14"
         transform="translate(590.5603056933405,414.6829324365873) rotate(11.034020514410408)"
         d="M-1,0L15,5L15,-5Z"
         class="arrowfront"
         fill="white"
         stroke-width="1.5"
         stroke="red" />
    </g>
    <g
       id="g16"
       style="cursor: move;"
       class="path">
      <path
         id="path18"
         d="M659.56,437.24L789.01,601.12"
         fill="none"
         stroke-width="1.5"
         stroke="red" />
      <path
         id="path20"
         transform="translate(789.0062122477968,601.1233002081372) rotate(231.69582444191138)"
         d="M-1,0L15,5L15,-5Z"
         class="arrowfront"
         fill="white"
         stroke-width="1.5"
         stroke="red" />
    </g>
    <g
       id="g22"
       style="cursor: move;"
       class="path">
      <path
         id="path24"
         d="M440.21,601.00L441.72,468.00"
         fill="none"
         stroke-width="1.5"
         stroke="green" />
      <path
         id="path26"
         transform="translate(441.72076140135334,467.99861048891273) rotate(90.65101845364673)"
         d="M-1,0L15,5L15,-5Z"
         class="arrowfront"
         fill="white"
         stroke-width="1.5"
         stroke="green" />
    </g>
    <g
       id="g28"
       style="cursor: move;"
       class="path">
      <path
         id="path30"
         d="M537.46,539.96L459.41,462.20"
         fill="none"
         stroke-width="1.5"
         stroke="green" />
      <path
         id="path32"
         transform="translate(459.4095468205905,462.203735507863) rotate(44.889014712188334)"
         d="M-1,0L15,5L15,-5Z"
         class="arrowfront"
         fill="white"
         stroke-width="1.5"
         stroke="green" />
    </g>
    <g
       id="g34"
       style="cursor: move;"
       class="path">
      <path
         id="path36"
         d="M456.55,607.57L530.00,561.69"
         fill="none"
         stroke-width="1.5"
         stroke="green" />
      <path
         id="path38"
         transform="translate(529.9959098602312,561.6949532631202) rotate(148.00908851991403)"
         d="M-1,0L15,5L15,-5Z"
         class="arrowfront"
         fill="white"
         stroke-width="1.5"
         stroke="green" />
    </g>
    <g
       id="g40"
       style="cursor: move;"
       class="path">
      <path
         id="path42"
         d="M482.53,339.42L543.69,531.91"
         fill="none"
         stroke-width="1.5"
         stroke="black" />
      <path
         id="path44"
         transform="translate(543.6850352651381,531.9109492208883) rotate(252.37364095284198)"
         d="M-1,0L15,5L15,-5Z"
         class="arrowfront"
         fill="white"
         stroke-width="1.5"
         stroke="black" />
    </g>
    <g
       id="g46"
       style="cursor: move;"
       class="path">
      <path
         id="path48"
         d="M472.15,339.56L448.43,428.70"
         fill="none"
         stroke-width="1.5"
         stroke="black" />
      <path
         id="path50"
         transform="translate(448.4302379436749,428.70049748033347) rotate(-75.09969839101313)"
         d="M-1,0L15,5L15,-5Z"
         class="arrowfront"
         fill="white"
         stroke-width="1.5"
         stroke="black" />
    </g>
    <g
       id="g52"
       style="cursor: move;"
       class="path">
      <path
         id="path54"
         d="M556.53,424.22L452.38,598.72"
         fill="none"
         stroke-width="1.5"
         stroke="red" />
      <path
         id="path56"
         transform="translate(452.3816269651616,598.7202710358391) rotate(-59.17015271015629)"
         d="M-1,0L15,5L15,-5Z"
         class="arrowfront"
         fill="white"
         stroke-width="1.5"
         stroke="red" />
    </g>
    <g
       id="g58"
       style="cursor: move;"
       class="path">
      <path
         id="path60"
         d="M459.58,455.16L781.79,607.96"
         fill="none"
         stroke-width="1.5"
         stroke="green" />
      <path
         id="path62"
         transform="translate(781.7891246724448,607.9563323402483) rotate(205.37128207586915)"
         d="M-1,0L15,5L15,-5Z"
         class="arrowfront"
         fill="white"
         stroke-width="1.5"
         stroke="green" />
    </g>
    <g
       id="g64"
       style="cursor: move;"
       class="path">
      <path
         id="path66"
         d="M460.00,616.05L779.00,616.94"
         fill="none"
         stroke-width="1.5"
         stroke="green" />
      <path
         id="path68"
         transform="translate(779.0002168063785,616.9395284491717) rotate(180.16006828009904)"
         d="M-1,0L15,5L15,-5Z"
         class="arrowfront"
         fill="white"
         stroke-width="1.5"
         stroke="green" />
    </g>
    <g
       id="g70"
       style="cursor: move;"
       class="path">
      <path
         id="path72"
         d="M862.36,469.15L812.76,598.32"
         fill="none"
         stroke-width="1.5"
         stroke="black" />
      <path
         id="path74"
         transform="translate(812.7639689296161,598.3200739561979) rotate(-68.99484050524408)"
         d="M-1,0L15,5L15,-5Z"
         class="arrowfront"
         fill="white"
         stroke-width="1.5"
         stroke="black" />
    </g>
    <g
       id="g76"
       style="cursor: move;"
       class="path">
      <path
         id="path78"
         d="M565.16,314.00L565.79,391.00"
         fill="none"
         stroke-width="1.5"
         stroke="black" />
      <path
         id="path80"
         transform="translate(565.7906566729961,391.00080319266664) rotate(269.5285501710761)"
         d="M-1,0L15,5L15,-5Z"
         class="arrowfront"
         fill="white"
         stroke-width="1.5"
         stroke="black" />
    </g>
    <g
       id="g82"
       style="cursor: move;"
       class="path">
      <path
         id="path84"
         d="M688.08,346.03L794.67,598.50"
         fill="none"
         stroke-width="1.5"
         stroke="red" />
      <path
         id="path86"
         transform="translate(794.6691927909982,598.5025880652183) rotate(247.11097727936732)"
         d="M-1,0L15,5L15,-5Z"
         class="arrowfront"
         fill="white"
         stroke-width="1.5"
         stroke="red" />
    </g>
    <g
       id="g88"
       style="cursor: move;"
       class="path">
      <path
         id="path90"
         d="M665.34,341.33L585.95,399.11"
         fill="none"
         stroke-width="1.5"
         stroke="red" />
      <path
         id="path92"
         transform="translate(585.9544205934565,399.1085646842678) rotate(-36.046822562252544)"
         d="M-1,0L15,5L15,-5Z"
         class="arrowfront"
         fill="white"
         stroke-width="1.5"
         stroke="red" />
    </g>
    <g
       id="g94"
       style="cursor: move;"
       class="path">
      <path
         id="path96"
         d="M675.05,346.33L655.86,406.06"
         fill="none"
         stroke-width="1.5"
         stroke="red" />
      <path
         id="path98"
         transform="translate(655.8644159673077,406.0565886440722) rotate(-72.19061525554251)"
         d="M-1,0L15,5L15,-5Z"
         class="arrowfront"
         fill="white"
         stroke-width="1.5"
         stroke="red" />
    </g>
    <g
       id="g100"
       style="cursor: move;"
       class="path">
      <path
         id="path102"
         d="M799.37,394.00L803.51,597.00"
         fill="none"
         stroke-width="1.5"
         stroke="black" />
      <path
         id="path104"
         transform="translate(803.5074039548865,597.0040837884734) rotate(268.83229508303094)"
         d="M-1,0L15,5L15,-5Z"
         class="arrowfront"
         fill="white"
         stroke-width="1.5"
         stroke="black" />
    </g>
    <g
       id="g106"
       transform="translate(648,425)"
       style="cursor: move;">
      <path
         id="path108"
         stroke="#ff7777"
         fill="#ff7777"
         d="M 0 0 m 20, 0 a 20,15 0 1,1 -40,0 a 20,15 0 1,1 40,0"
         z-index="1"
         stroke-width="2"
         fill-opacity="0.7" />
      <rect
         id="rect110"
         y="22.866666793823242"
         x="-13.866666793823242"
         height="14.733333587646484"
         width="27.733333587646484"
         fill="#ffffff"
         class="textbg" />
      <text
         id="text112"
         text-anchor="middle"
         y="35"
         class="nodelabel">MET</text>
    </g>
    <g
       id="g114"
       transform="translate(440,616)"
       style="cursor: move;">
      <path
         id="path116"
         stroke="#000000"
         fill="#bed403"
         d="M 0 0 m 20, 0 a 20,15 0 1,1 -40,0 a 20,15 0 1,1 40,0"
         z-index="1"
         stroke-width="2"
         fill-opacity="0.7" />
      <rect
         id="rect118"
         y="22.866666793823242"
         x="-16.899999618530273"
         height="14.733333587646484"
         width="34.66666793823242"
         fill="#ffffff"
         class="textbg" />
      <text
         id="text120"
         text-anchor="middle"
         y="35"
         class="nodelabel">NEFA</text>
      <path
         id="path122"
         fill="#000000"
         d="M-4,-6L7,0L-4,6Z" />
    </g>
    <g
       id="g124"
       transform="translate(566,411)"
       style="cursor: move;">
      <path
         id="path126"
         stroke="#bed403"
         fill="#bed403"
         d="M 0 0 m 20, 0 a 20,15 0 1,1 -40,0 a 20,15 0 1,1 40,0"
         z-index="1"
         stroke-width="2"
         fill-opacity="0.7" />
      <rect
         id="rect128"
         y="22.866666793823242"
         x="-15.600000381469727"
         height="14.733333587646484"
         width="31.200000762939453"
         fill="#ffffff"
         class="textbg" />
      <text
         id="text130"
         text-anchor="middle"
         y="35"
         class="nodelabel">Waist</text>
    </g>
    <g
       id="g132"
       transform="translate(804,617)"
       style="cursor: move;">
      <path
         id="path134"
         stroke="#000000"
         fill="#00a2e0"
         d="M 0 0 m 20, 0 a 20,15 0 1,1 -40,0 a 20,15 0 1,1 40,0"
         z-index="1"
         stroke-width="2"
         fill-opacity="0.7" />
      <rect
         id="rect136"
         y="22.866666793823242"
         x="-7.800000190734863"
         height="14.733333587646484"
         width="15.600000381469727"
         fill="#ffffff"
         class="textbg" />
      <text
         id="text138"
         text-anchor="middle"
         y="35"
         class="nodelabel">ISI</text>
      <path
         id="path140"
         fill="#000000"
         d="M-2,-6L2,-6L2,6L-2,6Z" />
    </g>
    <g
       id="g142"
       transform="translate(442,448)"
       style="cursor: move;">
      <path
         id="path144"
         stroke="#00a2e0"
         fill="#00a2e0"
         d="M 0 0 m 20, 0 a 20,15 0 1,1 -40,0 a 20,15 0 1,1 40,0"
         z-index="1"
         stroke-width="2"
         fill-opacity="0.7" />
      <rect
         id="rect146"
         y="22.866666793823242"
         x="-13"
         height="14.733333587646484"
         width="26"
         fill="#ffffff"
         class="textbg" />
      <text
         id="text148"
         text-anchor="middle"
         y="35"
         class="nodelabel">TAG</text>
    </g>
    <g
       id="g150"
       transform="translate(551,551)"
       style="cursor: move;">
      <path
         id="path152"
         stroke="#00a2e0"
         fill="#00a2e0"
         d="M 0 0 m 20, 0 a 20,15 0 1,1 -40,0 a 20,15 0 1,1 40,0"
         z-index="1"
         stroke-width="2"
         fill-opacity="0.7" />
      <rect
         id="rect154"
         y="22.866666793823242"
         x="-11.266666412353516"
         height="14.733333587646484"
         width="22.53333282470703"
         fill="#ffffff"
         class="textbg" />
      <text
         id="text156"
         text-anchor="middle"
         y="35"
         class="nodelabel">ALT</text>
    </g>
    <g
       id="g158"
       transform="translate(477,325)"
       style="cursor: move;">
      <path
         id="path160"
         stroke="#00a2e0"
         fill="#00a2e0"
         d="M 0 0 m 20, 0 a 20,15 0 1,1 -40,0 a 20,15 0 1,1 40,0"
         z-index="1"
         stroke-width="2"
         fill-opacity="0.7" />
      <rect
         id="rect162"
         y="22.866666793823242"
         x="-40.29999923706055"
         height="14.733333587646484"
         width="80.5999984741211"
         fill="#ffffff"
         class="textbg" />
      <text
         id="text164"
         text-anchor="middle"
         y="35"
         class="nodelabel">AlcoholPerWk</text>
    </g>
    <g
       id="g166"
       transform="translate(869,455)"
       style="cursor: move;">
      <path
         id="path168"
         stroke="#00a2e0"
         fill="#00a2e0"
         d="M 0 0 m 20, 0 a 20,15 0 1,1 -40,0 a 20,15 0 1,1 40,0"
         z-index="1"
         stroke-width="2"
         fill-opacity="0.7" />
      <rect
         id="rect170"
         y="22.866666793823242"
         x="-37.266666412353516"
         height="14.733333587646484"
         width="74.53333282470703"
         fill="#ffffff"
         class="textbg" />
      <text
         id="text172"
         text-anchor="middle"
         y="35"
         class="nodelabel">FamHistDiab</text>
    </g>
    <g
       id="g174"
       transform="translate(565,299)"
       style="cursor: move;">
      <path
         id="path176"
         stroke="#bed403"
         fill="#bed403"
         d="M 0 0 m 20, 0 a 20,15 0 1,1 -40,0 a 20,15 0 1,1 40,0"
         z-index="1"
         stroke-width="2"
         fill-opacity="0.7" />
      <rect
         id="rect178"
         y="22.866666793823242"
         x="-24.266666412353516"
         height="14.733333587646484"
         width="48.53333282470703"
         fill="#ffffff"
         class="textbg" />
      <text
         id="text180"
         text-anchor="middle"
         y="35"
         class="nodelabel">Ethnicity</text>
    </g>
    <g
       id="g182"
       transform="translate(681,332)"
       style="cursor: move;">
      <path
         id="path184"
         stroke="#ff7777"
         fill="#ff7777"
         d="M 0 0 m 20, 0 a 20,15 0 1,1 -40,0 a 20,15 0 1,1 40,0"
         z-index="1"
         stroke-width="2"
         fill-opacity="0.7" />
      <rect
         id="rect186"
         y="22.866666793823242"
         x="-11.266666412353516"
         height="14.733333587646484"
         width="22.53333282470703"
         fill="#ffffff"
         class="textbg" />
      <text
         id="text188"
         text-anchor="middle"
         y="35"
         class="nodelabel">Sex</text>
    </g>
    <g
       id="g190"
       transform="translate(799,379)"
       style="cursor: move;">
      <path
         id="path192"
         stroke="#00a2e0"
         fill="#00a2e0"
         d="M 0 0 m 20, 0 a 20,15 0 1,1 -40,0 a 20,15 0 1,1 40,0"
         z-index="1"
         stroke-width="2"
         fill-opacity="0.7" />
      <rect
         id="rect194"
         y="22.866666793823242"
         x="-11.266666412353516"
         height="14.733333587646484"
         width="22.53333282470703"
         fill="#ffffff"
         class="textbg" />
      <text
         id="text196"
         text-anchor="middle"
         y="35"
         class="nodelabel">Age</text>
    </g>
  </g>
</svg>
